<svg width="72" height="72" viewBox="0 0 72 72" fill="none" xmlns="http://www.w3.org/2000/svg">
<ellipse cx="32.0052" cy="34.8051" rx="31.205" ry="31.205" stroke="black" stroke-opacity="0.16" stroke-linecap="round" stroke-linejoin="round" stroke-dasharray="3 4"/>
<path d="M43.9455 12.1288C42.9159 11.4246 41.5753 11.4256 40.5468 12.1313L13.9157 30.4035C11.3949 32.1331 12.5881 36.1719 15.6192 36.1698L17.5027 36.1684L17.5204 60.7176L67.0427 60.682L67.0251 36.1328L68.9076 36.1315C71.9387 36.1293 73.1261 32.0887 70.6028 30.3628L43.9455 12.1288Z" fill="#29CFD4"/>
<path d="M17.5204 60.7176C16.1528 60.7185 15.0442 61.8768 15.0452 63.3039L15.7527 63.3034C13.9894 63.3371 12.5706 64.84 12.5719 66.688L12.5732 68.4735L72 68.4307L71.9987 66.6453C71.9974 64.7973 70.5765 63.2965 68.8131 63.2653L69.5198 63.2648C69.5188 61.8376 68.4102 60.681 67.0427 60.682L17.5204 60.7176Z" fill="#29CFD4"/>
<path d="M67.0358 60.0572L67.0188 36.4558L17.3317 36.4915L67.0358 60.0572Z" fill="black" fill-opacity="0.08"/>
<path d="M12.6225 32.2308C12.2233 34.2212 13.4512 36.4941 15.6194 36.4925L68.9079 36.4542C71.0761 36.4526 72.3008 34.1781 71.8986 32.1882L12.6225 32.2308Z" fill="#086981"/>
<path d="M46.6765 23.1547C46.6784 25.8643 44.4871 28.0625 41.7821 28.0644C39.077 28.0664 36.8826 25.8714 36.8806 23.1617C36.8787 20.4521 39.07 18.2539 41.775 18.252C44.4801 18.25 46.6746 20.445 46.6765 23.1547Z" fill="#086981"/>
<path d="M50.8071 43.805C50.8059 42.1074 52.1811 40.7302 53.8787 40.729C55.5763 40.7278 56.9535 42.103 56.9547 43.8006L56.9661 59.6827C56.9674 61.3803 55.5922 62.7575 53.8946 62.7587C52.1969 62.7599 50.8198 61.3847 50.8185 59.6871L50.8071 43.805Z" fill="white"/>
<path d="M39.1949 43.8126C39.1937 42.115 40.5689 40.7378 42.2665 40.7366C43.9641 40.7354 45.3413 42.1106 45.3425 43.8082L45.354 59.6902C45.3552 61.3879 43.98 62.765 42.2824 62.7662C40.5848 62.7675 39.2076 61.3923 39.2064 59.6947L39.1949 43.8126Z" fill="white"/>
<path d="M27.5833 43.8219C27.582 42.1242 28.9572 40.7471 30.6548 40.7459C32.3525 40.7446 33.7296 42.1198 33.7309 43.8174L33.7423 59.6995C33.7435 61.3971 32.3683 62.7743 30.6707 62.7755C28.9731 62.7767 27.5959 61.4015 27.5947 59.7039L27.5833 43.8219Z" fill="white"/>
<path d="M15.3016 62.6543C15.3008 61.5497 16.1956 60.6537 17.3002 60.6529L67.9455 60.6165C69.0501 60.6157 69.9461 61.5105 69.9469 62.615L69.9475 63.4576L15.3022 63.4968L15.3016 62.6543Z" fill="#086981"/>
<path d="M5.07486 11.8451C2.99907 12.8683 2.15734 15.831 3.34796 18.5634C4.53858 21.2957 6.94911 22.7108 9.65628 22.6355C10.4754 22.6128 11.7344 22.1076 12.1646 21.9522C13.3938 20.6128 12.5059 18.0697 11.4462 15.6378C10.3004 13.0083 10.076 10.5101 7.40196 10.7794C6.50115 11.0064 5.63922 11.5669 5.07486 11.8451Z" fill="#872166"/>
<path d="M7.10768 10.8325C4.41118 11.8069 3.31702 15.103 4.6638 18.1946C6.01059 21.2862 9.28832 23.0025 11.9848 22.0281C14.6813 21.0537 15.7755 17.7576 14.4287 14.666C13.0819 11.5745 9.80419 9.85813 7.10768 10.8325Z" fill="#AB5991"/>
<path d="M8.17608 19.9591L7.85191 19.0942C8.11095 18.8747 8.29634 18.6106 8.40808 18.3016C8.52425 17.9843 8.51821 17.6545 8.38997 17.3124C8.37334 17.268 8.3545 17.2278 8.33344 17.1919C8.31682 17.1475 8.29678 17.1042 8.27335 17.0619L7.25155 17.3709L6.94518 16.5535L7.62219 16.2958L7.6835 16.2773C7.58832 16.165 7.49995 16.0506 7.41839 15.9341C7.34364 15.8156 7.28252 15.693 7.23502 15.5663C7.1234 15.2685 7.07696 14.9827 7.09571 14.7089C7.11445 14.4352 7.18832 14.1871 7.31731 13.9646C7.45073 13.7338 7.63365 13.5339 7.86607 13.3648C8.09612 13.1894 8.37122 13.0533 8.69139 12.9565C9.07286 12.8411 9.42818 12.8078 9.75734 12.8564C10.0933 12.9029 10.4234 13.0148 10.7477 13.1919L10.2152 14.1995C10.0495 14.1014 9.8901 14.0403 9.73692 14.016C9.58137 13.9855 9.42185 13.9949 9.25836 14.0444C8.98588 14.1268 8.79521 14.2655 8.68635 14.4607C8.58429 14.6539 8.59026 14.9025 8.70426 15.2067C8.74701 15.3207 8.79998 15.4317 8.86316 15.5396C8.92635 15.6475 8.99634 15.7533 9.07315 15.857L10.5854 15.3997L10.9096 16.2647L9.59147 16.6633C9.61491 16.7056 9.63494 16.7489 9.65156 16.7933C9.67262 16.8292 9.69265 16.8726 9.71165 16.9233C9.79715 17.1514 9.83331 17.3591 9.82012 17.5466C9.81375 17.7319 9.76088 17.9349 9.66152 18.1554L9.67577 18.1934L12.3222 17.3931L12.764 18.5718L8.17608 19.9591Z" fill="white"/>
<path d="M21.6568 19.2612C23.9899 20.5238 24.9755 24.1022 23.6888 27.3727C22.4021 30.6433 19.7331 32.3101 16.7099 32.1788C15.7952 32.1391 14.3819 31.5122 13.8993 31.3187C12.5063 29.6883 13.4581 26.641 14.6033 23.73C15.8415 20.5826 16.0533 17.5794 19.0425 17.9437C20.0516 18.2304 21.0225 18.918 21.6568 19.2612Z" fill="#7D2163"/>
<path d="M19.3718 18.0126C22.397 19.2258 23.6695 23.2091 22.214 26.9095C20.7586 30.61 17.1264 32.6263 14.1012 31.4131C11.076 30.1999 9.80347 26.2166 11.2589 22.5162C12.7143 18.8157 16.3466 16.7994 19.3718 18.0126Z" fill="#993D7D"/>
<path d="M15.2731 28.3205C14.5945 27.9808 14.1089 27.4801 13.8163 26.8182C13.5344 26.1527 13.5123 25.3731 13.7499 24.4794L13.0786 24.1434L13.4516 23.3943L14.0579 23.6435C14.0759 23.5892 14.0957 23.5404 14.1173 23.497C14.139 23.4535 14.1624 23.4065 14.1876 23.3558C14.2128 23.3052 14.2363 23.2581 14.2579 23.2147C14.2831 23.164 14.3101 23.1188 14.339 23.079L13.7543 22.7863L14.1219 22.0481L14.8202 22.3298C15.1087 21.9679 15.417 21.6746 15.7452 21.4501C16.077 21.2184 16.4197 21.0554 16.7732 20.9611C17.134 20.8705 17.4966 20.8485 17.8611 20.8953C18.2291 20.9349 18.5936 21.045 18.9545 21.2257C19.2794 21.3883 19.561 21.6196 19.7993 21.9198C20.0376 22.2199 20.2038 22.5653 20.2978 22.9559L18.9829 23.3692C18.9142 23.163 18.8257 22.9785 18.7174 22.8158C18.6162 22.6567 18.4718 22.5302 18.2842 22.4362C17.9738 22.2809 17.658 22.263 17.337 22.3825C17.0231 22.5057 16.7202 22.7519 16.4282 23.1211L18.7453 24.281L18.3453 25.0844L15.9307 23.8757L15.8172 24.1037C15.7883 24.1616 15.7613 24.2159 15.7361 24.2665C15.7108 24.3172 15.6892 24.3697 15.6712 24.4239L17.6419 25.4104L17.2365 26.2246L15.3741 25.2924C15.2769 25.741 15.2772 26.1209 15.3748 26.432C15.4796 26.7466 15.6836 26.9799 15.9868 27.1316C16.1961 27.2364 16.4018 27.2761 16.6039 27.2506C16.8131 27.2288 17.0368 27.1599 17.2749 27.044L17.7411 28.3081C17.319 28.5037 16.8988 28.6053 16.4802 28.6128C16.0653 28.613 15.6629 28.5156 15.2731 28.3205Z" fill="white"/>
<path d="M5.19753 29.4888C2.00248 31.1632 0.67213 35.943 2.45943 40.3252C4.24673 44.7074 7.9215 46.9531 12.0712 46.7961C13.3268 46.7486 15.2631 45.9187 15.9244 45.6629C17.8264 43.4908 16.5004 39.4093 14.9096 35.5089C13.1896 31.2918 12.8798 27.2738 8.77829 27.7427C7.39472 28.1199 6.06619 29.0336 5.19753 29.4888Z" fill="#70215E"/>
<path d="M8.32437 27.8317C4.18036 29.4346 2.4611 34.7556 4.48428 39.7165C6.50746 44.6774 11.507 47.3996 15.651 45.7967C19.795 44.1938 21.5142 38.8729 19.491 33.912C17.4679 28.9511 12.4684 26.2289 8.32437 27.8317Z" fill="#872166"/>
<path d="M13.3047 35.3729C12.827 35.2732 12.3391 35.2323 11.8536 35.1839C11.5722 35.1562 11.2964 35.109 11.035 35.0085C10.5199 34.81 10.4422 34.2734 10.8692 33.9317C10.9901 33.835 11.1295 33.7756 11.2742 33.7258C11.8327 33.5368 12.4022 33.4832 12.9874 33.5726C13.2789 33.6177 13.352 33.5568 13.361 33.2795C13.3699 32.9866 13.3624 32.6938 13.3641 32.4007C13.3649 32.2039 13.259 32.1042 13.0559 32.0789C12.6845 32.0341 12.3164 32.0308 11.9449 32.0777C11.4606 32.1407 11.46 32.1386 11.3221 31.6973C11.1288 31.075 11.1288 31.075 10.4705 31.2609C10.3752 31.2878 10.2793 31.3126 10.1846 31.3416C9.87966 31.4367 9.84347 31.5027 9.92505 31.7991C9.9611 31.9319 10.0058 32.0623 10.0447 32.1965C10.1624 32.5877 10.1584 32.5821 9.80589 32.8291C8.95406 33.427 8.55438 34.2101 8.79449 35.2145C9.00639 36.1041 9.66824 36.5583 10.5559 36.7746C11.1029 36.9083 11.6662 36.919 12.2237 36.9872C12.441 37.013 12.6535 37.0535 12.8528 37.1357C13.4413 37.3739 13.5446 38.0171 13.0535 38.4104C12.791 38.6208 12.4822 38.7415 12.1432 38.7948C11.6204 38.8776 11.099 38.8886 10.5754 38.7929C10.2687 38.7366 10.2015 38.7935 10.1944 39.0926C10.1891 39.351 10.193 39.6091 10.1969 39.8671C10.2022 40.2141 10.2602 40.2803 10.6289 40.3393C11.0984 40.4123 11.5677 40.3847 12.0368 40.326C12.404 40.2804 12.4192 40.2917 12.5296 40.6359C12.5797 40.7915 12.6283 40.9498 12.6784 41.1054C12.7412 41.3021 12.8761 41.3891 13.0917 41.3327C13.3355 41.2683 13.5802 41.1992 13.8209 41.1246C14.0188 41.0642 14.0891 40.9327 14.0304 40.7415C13.9647 40.5277 13.9093 40.3088 13.835 40.0975C13.7573 39.8826 13.8228 39.7435 14.026 39.6236C14.4945 39.3483 14.8481 38.967 15.0629 38.4864C15.6616 37.1557 14.8284 35.691 13.3047 35.3729Z" fill="white"/>
<path d="M43.2069 8.40087C44.5326 8.40087 45.6073 7.32618 45.6073 6.00048C45.6073 4.67479 44.5326 3.6001 43.2069 3.6001C41.8812 3.6001 40.8065 4.67479 40.8065 6.00048C40.8065 7.32618 41.8812 8.40087 43.2069 8.40087Z" fill="#872166"/>
</svg>
