<svg width="72" height="72" viewBox="0 0 72 72" fill="none" xmlns="http://www.w3.org/2000/svg">
<path fill-rule="evenodd" clip-rule="evenodd" d="M30.3792 70.2153C30.55 70.3908 30.7341 70.5462 30.9292 70.6817C31.0592 70.7721 31.0757 70.9617 30.9662 71.1054C30.8566 71.249 30.6624 71.2922 30.5324 71.2019C30.3113 71.0482 30.1027 70.8721 29.9097 70.6738L29.2954 70.0425C29.1854 69.9295 29.2014 69.7353 29.3311 69.6087C29.4607 69.4821 29.655 69.471 29.7649 69.584L30.3792 70.2153ZM28.0911 68.3344C27.9614 68.461 27.7672 68.4721 27.6572 68.3591L26.4286 67.0966C26.3187 66.9836 26.3346 66.7893 26.4643 66.6627C26.5939 66.5361 26.7882 66.5251 26.8981 66.6381L28.1268 67.9006C28.2367 68.0136 28.2207 68.2078 28.0911 68.3344ZM25.2243 65.3885C25.0946 65.5151 24.9004 65.5262 24.7905 65.4132L23.5618 64.1506C23.4519 64.0376 23.4678 63.8434 23.5975 63.7168C23.7272 63.5902 23.9214 63.5792 24.0314 63.6921L25.26 64.9547C25.3699 65.0677 25.3539 65.2619 25.2243 65.3885ZM22.3575 62.4426C22.2279 62.5692 22.0336 62.5802 21.9237 62.4672L20.6951 61.2047C20.5851 61.0917 20.6011 60.8975 20.7307 60.7709C20.8604 60.6443 21.0546 60.6332 21.1646 60.7462L22.3932 62.0087C22.5031 62.1217 22.4872 62.316 22.3575 62.4426ZM19.4907 59.4966C19.3611 59.6232 19.1668 59.6343 19.0569 59.5213L17.8283 58.2588C17.7183 58.1458 17.7343 57.9515 17.864 57.8249C17.9936 57.6983 18.1878 57.6873 18.2978 57.8003L19.5264 59.0628C19.6364 59.1758 19.6204 59.37 19.4907 59.4966ZM16.624 56.5507C16.4943 56.6773 16.3001 56.6883 16.1901 56.5754L14.9615 55.3128C14.8515 55.1998 14.8675 55.0056 14.9972 54.879C15.1268 54.7524 15.3211 54.7413 15.431 54.8543L16.6596 56.1169C16.7696 56.2299 16.7536 56.4241 16.624 56.5507ZM13.7572 53.6048C13.6275 53.7314 13.4333 53.7424 13.3233 53.6294L12.0947 52.3669C11.9848 52.2539 12.0007 52.0597 12.1304 51.9331C12.26 51.8065 12.4543 51.7954 12.5642 51.9084L13.7929 53.1709C13.9028 53.2839 13.8868 53.4782 13.7572 53.6048ZM10.8904 50.6588C10.7607 50.7854 10.5665 50.7965 10.4566 50.6835L9.22794 49.4209C9.11799 49.308 9.13396 49.1137 9.26361 48.9871C9.39327 48.8605 9.58751 48.8495 9.69746 48.9625L10.9261 50.225C11.036 50.338 11.02 50.5322 10.8904 50.6588ZM8.02361 47.7129C7.89396 47.8395 7.69973 47.8505 7.58977 47.7376L6.36116 46.475C6.25121 46.362 6.26718 46.1678 6.39683 46.0412C6.52649 45.9146 6.72072 45.9035 6.83067 46.0165L8.0593 47.2791C8.16925 47.3921 8.15327 47.5863 8.02361 47.7129ZM5.15684 44.767C5.02719 44.8936 4.83294 44.9046 4.723 44.7916L3.49437 43.5291C3.38443 43.4161 3.4004 43.2219 3.53006 43.0953C3.65971 42.9686 3.85395 42.9576 3.9639 43.0706L5.19252 44.3331C5.30247 44.4461 5.2865 44.6404 5.15684 44.767ZM2.29007 41.821C2.16041 41.9476 1.96617 41.9587 1.85622 41.8457L1.2419 41.2144C1.04886 41.016 0.878522 40.8027 0.730748 40.5773C0.643903 40.4449 0.691976 40.2515 0.838117 40.1455C0.984258 40.0394 1.17313 40.0608 1.25998 40.1933C1.39029 40.3921 1.54067 40.5805 1.71143 40.7559L2.32574 41.3872C2.43569 41.5002 2.41972 41.6944 2.29007 41.821ZM32.3821 71.6286C32.4241 71.46 32.5916 71.3384 32.7564 71.3572C33.2594 71.4144 33.7814 71.3847 34.2987 71.2695C34.4681 71.2318 34.6171 71.3353 34.6316 71.5007C34.6461 71.6662 34.5206 71.8309 34.3512 71.8686C33.7653 71.9992 33.1742 72.0328 32.6043 71.9679C32.4396 71.9492 32.3401 71.7973 32.3821 71.6286ZM0.352071 38.7142C0.182698 38.752 0.0336351 38.6484 0.0191316 38.483C-0.0310241 37.9107 0.0175827 37.3196 0.162793 36.7362C0.204762 36.5676 0.372342 36.446 0.537076 36.4648C0.70181 36.4835 0.80132 36.6354 0.759351 36.8041C0.631154 37.3191 0.588231 37.8411 0.632512 38.3463C0.647008 38.5118 0.521451 38.6765 0.352071 38.7142ZM36.1473 70.8108C36.0605 70.6784 36.1085 70.485 36.2547 70.379C36.4739 70.2199 36.6855 70.042 36.8869 69.8453L37.5911 69.1576C37.7208 69.031 37.915 69.02 38.025 69.1329C38.1349 69.2459 38.119 69.4402 37.9893 69.5668L37.285 70.2545C37.0574 70.4768 36.8178 70.6783 36.5692 70.8587C36.423 70.9648 36.2341 70.9433 36.1473 70.8108ZM1.26421 34.9646C1.13422 34.8742 1.11765 34.6845 1.22721 34.5409C1.41362 34.2965 1.6208 34.0618 1.84845 33.8395L2.55273 33.1517C2.68238 33.0251 2.87662 33.0141 2.98657 33.1271C3.09652 33.24 3.08056 33.4343 2.9509 33.5609L2.24662 34.2486C2.04525 34.4452 1.86232 34.6525 1.69794 34.8681C1.58839 35.0117 1.3942 35.0549 1.26421 34.9646ZM39.4335 67.7575C39.3236 67.6445 39.3396 67.4503 39.4692 67.3237L40.8778 65.9482C41.0074 65.8216 41.2017 65.8106 41.3116 65.9236C41.4216 66.0365 41.4056 66.2308 41.276 66.3574L39.8674 67.7328C39.7377 67.8594 39.5435 67.8705 39.4335 67.7575ZM4.39515 31.7516C4.28519 31.6386 4.30116 31.4444 4.43081 31.3178L5.83938 29.9423C5.96904 29.8157 6.16328 29.8047 6.27323 29.9177C6.38318 30.0307 6.3672 30.2249 6.23755 30.3515L4.82898 31.7269C4.69933 31.8535 4.5051 31.8646 4.39515 31.7516ZM42.7202 64.5481C42.6102 64.4351 42.6262 64.2409 42.7559 64.1143L44.1644 62.7388C44.2941 62.6122 44.4883 62.6012 44.5983 62.7142C44.7082 62.8271 44.6923 63.0214 44.5626 63.148L43.154 64.5234C43.0244 64.65 42.8301 64.6611 42.7202 64.5481ZM7.68179 28.5422C7.57183 28.4292 7.58782 28.235 7.71747 28.1084L9.12604 26.7329C9.2557 26.6063 9.44992 26.5953 9.55987 26.7083C9.66983 26.8213 9.65385 27.0155 9.5242 27.1421L8.11563 28.5176C7.98598 28.6442 7.79174 28.6552 7.68179 28.5422ZM46.0069 61.3387C45.8969 61.2257 45.9129 61.0315 46.0425 60.9049L47.4511 59.5294C47.5808 59.4028 47.775 59.3918 47.8849 59.5048C47.9949 59.6178 47.9789 59.812 47.8493 59.9386L46.4407 61.314C46.311 61.4406 46.1168 61.4517 46.0069 61.3387ZM10.9684 25.3328C10.8585 25.2198 10.8745 25.0256 11.0041 24.899L12.4127 23.5235C12.5423 23.3969 12.7366 23.3859 12.8465 23.4989C12.9565 23.6119 12.9405 23.8061 12.8108 23.9327L11.4023 25.3082C11.2726 25.4348 11.0784 25.4458 10.9684 25.3328ZM49.2935 58.1293C49.1836 58.0163 49.1995 57.8221 49.3292 57.6955L50.7377 56.32C50.8674 56.1934 51.0616 56.1824 51.1716 56.2954C51.2815 56.4084 51.2656 56.6026 51.1359 56.7292L49.7273 58.1046C49.5977 58.2313 49.4035 58.2423 49.2935 58.1293ZM14.2551 22.1234C14.1451 22.0104 14.1611 21.8162 14.2908 21.6896L15.6993 20.3142C15.829 20.1875 16.0232 20.1765 16.1332 20.2895C16.2431 20.4025 16.2272 20.5967 16.0975 20.7233L14.6889 22.0988C14.5593 22.2254 14.365 22.2364 14.2551 22.1234ZM52.5802 54.9199C52.4702 54.8069 52.4862 54.6127 52.6158 54.4861L54.0244 53.1106C54.1541 52.984 54.3483 52.973 54.4582 53.086C54.5682 53.199 54.5522 53.3932 54.4226 53.5198L53.014 54.8953C52.8843 55.0219 52.6901 55.0329 52.5802 54.9199ZM17.5417 18.914C17.4318 18.8011 17.4478 18.6068 17.5774 18.4802L18.986 17.1048C19.1156 16.9782 19.3099 16.9671 19.4198 17.0801C19.5298 17.1931 19.5138 17.3873 19.3842 17.5139L17.9756 18.8894C17.8459 19.016 17.6517 19.027 17.5417 18.914ZM55.8668 51.7105C55.7569 51.5975 55.7728 51.4033 55.9025 51.2767L57.311 49.9013C57.4407 49.7746 57.6349 49.7636 57.7449 49.8766C57.8548 49.9896 57.8389 50.1838 57.7092 50.3104L56.3006 51.6859C56.171 51.8125 55.9768 51.8235 55.8668 51.7105ZM20.8284 15.7046C20.7184 15.5917 20.7344 15.3974 20.8641 15.2708L22.2726 13.8954C22.4023 13.7688 22.5965 13.7577 22.7065 13.8707C22.8164 13.9837 22.8005 14.1779 22.6708 14.3045L21.2622 15.68C21.1326 15.8066 20.9383 15.8176 20.8284 15.7046ZM59.1535 48.5011C59.0435 48.3882 59.0595 48.1939 59.1891 48.0673L60.5977 46.6919C60.7274 46.5653 60.9216 46.5542 61.0315 46.6672C61.1415 46.7802 61.1255 46.9744 60.9959 47.101L59.5873 48.4765C59.4576 48.6031 59.2634 48.6141 59.1535 48.5011ZM24.115 12.4953C24.0051 12.3823 24.0211 12.188 24.1507 12.0614L25.5593 10.686C25.689 10.5594 25.8832 10.5483 25.9931 10.6613C26.1031 10.7743 26.0871 10.9685 25.9574 11.0951L24.5489 12.4706C24.4192 12.5972 24.225 12.6082 24.115 12.4953ZM62.4401 45.2917C62.3302 45.1788 62.3461 44.9845 62.4758 44.8579L63.8844 43.4825C64.014 43.3559 64.2082 43.3448 64.3182 43.4578C64.4281 43.5708 64.4122 43.765 64.2825 43.8916L62.8739 45.2671C62.7443 45.3937 62.5501 45.4047 62.4401 45.2917ZM27.4017 9.28587C27.2918 9.17288 27.3077 8.97865 27.4374 8.85204L28.8459 7.47658C28.9756 7.34997 29.1698 7.33893 29.2798 7.45192C29.3897 7.56491 29.3738 7.75914 29.2441 7.88575L27.8355 9.2612C27.7059 9.3878 27.5117 9.39885 27.4017 9.28587ZM65.7268 42.0823C65.6168 41.9694 65.6328 41.7751 65.7624 41.6485L67.171 40.2731C67.3007 40.1465 67.4949 40.1354 67.6048 40.2484C67.7148 40.3614 67.6988 40.5556 67.5692 40.6822L66.1606 42.0577C66.0309 42.1843 65.8367 42.1953 65.7268 42.0823ZM30.6883 6.07647C30.5784 5.96349 30.5944 5.76925 30.724 5.64265L32.1326 4.2672C32.2623 4.14059 32.4565 4.12954 32.5664 4.24253C32.6764 4.35551 32.6604 4.54975 32.5308 4.67636L31.1222 6.0518C30.9925 6.17841 30.7983 6.18946 30.6883 6.07647ZM69.0134 38.873C68.9035 38.76 68.9194 38.5657 69.0491 38.4391L69.7534 37.7514C69.9547 37.5548 70.1377 37.3475 70.302 37.1319C70.4116 36.9883 70.6058 36.9451 70.7358 37.0354C70.8658 37.1258 70.8823 37.3155 70.7728 37.4591C70.5864 37.7035 70.3792 37.9383 70.1515 38.1606L69.4473 38.8483C69.3176 38.9749 69.1234 38.9859 69.0134 38.873ZM33.975 2.86708C33.865 2.75409 33.881 2.55986 34.0107 2.43325L34.715 1.74552C34.9426 1.52323 35.1822 1.32175 35.4308 1.14131C35.577 1.03527 35.7658 1.0567 35.8527 1.18917C35.9395 1.32165 35.8915 1.51499 35.7453 1.62104C35.526 1.78015 35.3145 1.95806 35.1131 2.15469L34.4088 2.84241C34.2792 2.96901 34.085 2.98007 33.975 2.86708ZM71.4629 35.5352C71.2982 35.5165 71.1987 35.3646 71.2406 35.1959C71.3688 34.6809 71.4118 34.1589 71.3675 33.6537C71.353 33.4883 71.4785 33.3235 71.6479 33.2858C71.8173 33.2481 71.9664 33.3516 71.9809 33.517C72.031 34.0893 71.9824 34.6804 71.8372 35.2638C71.7952 35.4324 71.6276 35.554 71.4629 35.5352ZM37.3684 0.499278C37.3539 0.333835 37.4794 0.169131 37.6488 0.131389C38.2347 0.000865073 38.8258 -0.0327348 39.3956 0.0320921C39.5604 0.0508375 39.6599 0.202746 39.6179 0.371402C39.5759 0.54005 39.4084 0.661578 39.2436 0.64284C38.7405 0.585605 38.2186 0.615275 37.7013 0.730518C37.5319 0.768253 37.3829 0.664722 37.3684 0.499278ZM71.1619 31.8546C71.0157 31.9606 70.8269 31.9392 70.74 31.8067C70.6097 31.6079 70.4593 31.4196 70.2886 31.2441L69.6742 30.6128C69.5643 30.4998 69.5803 30.3056 69.7099 30.179C69.8396 30.0524 70.0338 30.0414 70.1438 30.1543L70.7581 30.7856C70.9511 30.984 71.1215 31.1973 71.2692 31.4227C71.3561 31.5552 71.308 31.7485 71.1619 31.8546ZM41.0338 0.894626C41.1434 0.750987 41.3376 0.707782 41.4675 0.798121C41.6887 0.951854 41.8972 1.12787 42.0903 1.32625L42.7046 1.95752C42.8145 2.07051 42.7986 2.26473 42.6689 2.39134C42.5393 2.51795 42.345 2.52899 42.2351 2.41601L41.6208 1.78473C41.45 1.60926 41.2659 1.45385 41.0708 1.3183C40.9408 1.22795 40.9243 1.03827 41.0338 0.894626ZM68.4699 28.9048C68.3403 29.0314 68.146 29.0424 68.0361 28.9294L66.8075 27.6669C66.6975 27.5539 66.7135 27.3597 66.8431 27.2331C66.9728 27.1065 67.167 27.0954 67.277 27.2084L68.5056 28.4709C68.6156 28.5839 68.5996 28.7782 68.4699 28.9048ZM65.6032 25.9588C65.4735 26.0854 65.2793 26.0965 65.1693 25.9835L63.9407 24.7209C63.8307 24.608 63.8467 24.4137 63.9764 24.2871C64.106 24.1605 64.3003 24.1495 64.4102 24.2625L65.6388 25.525C65.7488 25.638 65.7328 25.8322 65.6032 25.9588ZM62.7364 23.0129C62.6067 23.1395 62.4125 23.1505 62.3025 23.0376L61.0739 21.775C60.964 21.662 60.9799 21.4678 61.1096 21.3412C61.2392 21.2146 61.4335 21.2035 61.5434 21.3165L62.7721 22.5791C62.882 22.6921 62.866 22.8863 62.7364 23.0129ZM59.8696 20.067C59.7399 20.1936 59.5457 20.2046 59.4358 20.0916L58.2071 18.8291C58.0972 18.7161 58.1132 18.5219 58.2428 18.3953C58.3725 18.2686 58.5667 18.2576 58.6767 18.3706L59.9053 19.6331C60.0152 19.7461 59.9993 19.9404 59.8696 20.067ZM57.0028 17.121C56.8732 17.2476 56.6789 17.2587 56.569 17.1457L55.3404 15.8831C55.2304 15.7702 55.2464 15.5759 55.376 15.4493C55.5057 15.3227 55.6999 15.3117 55.8099 15.4247L57.0385 16.6872C57.1484 16.8002 57.1325 16.9944 57.0028 17.121ZM54.136 14.1751C54.0064 14.3017 53.8121 14.3127 53.7022 14.1997L52.4736 12.9372C52.3636 12.8242 52.3796 12.63 52.5093 12.5034C52.6389 12.3768 52.8331 12.3657 52.9431 12.4787L54.1717 13.7413C54.2817 13.8543 54.2657 14.0485 54.136 14.1751ZM51.2693 11.2292C51.1396 11.3558 50.9454 11.3668 50.8354 11.2538L49.6068 9.99127C49.4968 9.87828 49.5128 9.68406 49.6425 9.55745C49.7721 9.43084 49.9664 9.4198 50.0763 9.53279L51.3049 10.7953C51.4149 10.9083 51.3989 11.1025 51.2693 11.2292ZM48.4025 8.28321C48.2728 8.40982 48.0786 8.42087 47.9686 8.30788L46.74 7.04534C46.6301 6.93235 46.646 6.73813 46.7757 6.61152C46.9054 6.48491 47.0996 6.47387 47.2095 6.58686L48.4382 7.8494C48.5481 7.96238 48.5321 8.1566 48.4025 8.28321ZM45.5357 5.33728C45.406 5.46389 45.2118 5.47492 45.1019 5.36194L43.8732 4.0994C43.7633 3.98641 43.7793 3.79219 43.9089 3.66558C44.0386 3.53897 44.2328 3.52793 44.3428 3.64091L45.5714 4.90346C45.6813 5.01644 45.6654 5.21067 45.5357 5.33728Z" fill="black" fill-opacity="0.16"/>
<path d="M5.04156 46.0792C5.83685 46.0792 6.48156 45.4345 6.48156 44.6392C6.48156 43.8439 5.83685 43.1992 5.04156 43.1992C4.24627 43.1992 3.60156 43.8439 3.60156 44.6392C3.60156 45.4345 4.24627 46.0792 5.04156 46.0792Z" fill="#811E68"/>
<path d="M67.1834 43.3786C68.3764 43.3786 69.3434 42.4115 69.3434 41.2186C69.3434 40.0257 68.3764 39.0586 67.1834 39.0586C65.9905 39.0586 65.0234 40.0257 65.0234 41.2186C65.0234 42.4115 65.9905 43.3786 67.1834 43.3786Z" fill="#811E68"/>
<path d="M15 11.6563C14.996 8.24717 17.3746 5.45508 20.3141 5.45508H50.8061C53.7117 5.45508 56.0671 8.18423 56.0671 11.5539C56.0671 15.8828 56.0671 22.0701 56.0671 28.6281C56.0671 37.8297 56.0671 52.2437 56.0671 60.3684C56.0671 63.7381 53.7117 66.469 50.8061 66.469H20.2617C17.3561 66.469 15.0007 63.7406 15.0007 60.3709C15.0007 47.1309 15.0007 16.6317 15.0007 12.8171C15.0007 12.4137 15.0004 12.0267 15 11.6563Z" fill="#086981"/>
<ellipse cx="35.5335" cy="61.1897" rx="1.76002" ry="1.76001" fill="white"/>
<path d="M18.5195 14.9186C18.5162 12.2962 20.479 10.1484 22.9047 10.1484H48.0667C50.4644 10.1484 52.4081 12.2478 52.4081 14.8399C52.4081 18.1698 52.4081 22.9292 52.4081 27.9738C52.4081 35.052 52.4081 46.1397 52.4081 52.3895C52.4081 54.9816 50.4644 57.0823 48.0667 57.0823H22.8615C20.4638 57.0823 18.5201 54.9835 18.5201 52.3914C18.5201 42.2067 18.5201 18.7458 18.5201 15.8115C18.5201 15.5012 18.5199 15.2036 18.5195 14.9186Z" fill="#29CFD4"/>
<path d="M36.1066 57.0823H48.0661C50.4637 57.0823 52.4074 54.981 52.4074 52.3889V14.8418C52.4074 12.2497 50.4637 10.1484 48.0661 10.1484H34.4786C50.7793 27.3086 25.4153 40.6554 36.1066 57.0823Z" fill="#189CAA"/>
<path d="M46.9555 5.64578C43.7604 7.32014 42.4301 12.1 44.2174 16.4822C46.0047 20.8644 49.6794 23.1101 53.8291 22.9531C55.0847 22.9055 57.021 22.0757 57.6823 21.8199C59.5844 19.6478 58.2584 15.5663 56.6676 11.6659C54.9476 7.44875 54.6377 3.43076 50.5362 3.89966C49.1527 4.27691 47.8241 5.19055 46.9555 5.64578Z" fill="#70215E"/>
<path d="M50.0839 3.98994C45.9399 5.59282 44.2206 10.9138 46.2438 15.8747C48.267 20.8356 53.2665 23.5578 57.4105 21.9549C61.5545 20.3521 63.2737 15.0311 61.2506 10.0702C59.2274 5.10927 54.2279 2.38706 50.0839 3.98994Z" fill="#872166"/>
<g clip-path="url(#clip0)">
<path d="M57.1107 14.1889C56.7243 14.3111 56.4267 14.573 56.2379 14.8957L51.9448 13.932C51.9333 13.807 51.9166 13.6836 51.878 13.5616C51.8394 13.4395 51.7821 13.329 51.7197 13.2201L54.6437 9.99633C54.9987 10.1637 55.4096 10.2072 55.8113 10.0801C56.6554 9.81318 57.1213 8.91628 56.8544 8.07215C56.5874 7.22803 55.6905 6.76213 54.8464 7.02909C54.0023 7.29605 53.5364 8.19296 53.8033 9.03708C53.8419 9.15912 53.8992 9.26965 53.9617 9.37856L51.0376 12.6023C50.6826 12.4349 50.2717 12.3915 49.87 12.5185C49.0259 12.7855 48.56 13.6824 48.827 14.5265C49.0939 15.3706 49.9908 15.8365 50.8349 15.5696C51.2367 15.4425 51.5479 15.1707 51.742 14.8296L56.0316 15.7999C56.04 15.9148 56.0601 16.0315 56.0955 16.1433C56.3544 16.962 57.2312 17.4175 58.0499 17.1586C58.8686 16.8997 59.3241 16.0228 59.0652 15.2041C58.8063 14.3854 57.9294 13.93 57.1107 14.1889Z" fill="white"/>
</g>
<path fill-rule="evenodd" clip-rule="evenodd" d="M27 42.2698C27 39.4295 29.4797 37.127 32.5385 37.127H39.4615C42.5203 37.127 45 39.4295 45 42.2698V45.4841C45 45.8391 44.69 46.127 44.3077 46.127H27.6923C27.31 46.127 27 45.8391 27 45.4841V42.2698Z" fill="white"/>
<circle cx="36" cy="30.375" r="4.5" fill="white"/>
<defs>
<clipPath id="clip0">
<rect width="14.3697" height="14.4306" fill="white" transform="matrix(0.955465 -0.302175 0.300899 0.95143 44.9609 8.26758)"/>
</clipPath>
</defs>
</svg>
