<svg width="73" height="72" viewBox="0 0 73 72" fill="none" xmlns="http://www.w3.org/2000/svg">
<ellipse cx="31.8571" cy="35.8972" rx="30.8571" ry="30.8571" stroke="black" stroke-opacity="0.16" stroke-linecap="round" stroke-linejoin="round" stroke-dasharray="3 4"/>
<path d="M63.4241 61.494L16.7733 61.6737C14.687 61.6769 12.9853 60.0019 12.9821 57.9372L12.8682 25.9978C12.865 23.933 14.5615 22.2313 16.6478 22.228L63.2986 22.0483C65.3849 22.0451 67.0866 23.7201 67.0898 25.7849L67.2037 57.7243C67.1854 59.7891 65.4889 61.4693 63.4241 61.494Z" fill="#086981"/>
<path d="M66.6159 66.9954L18.7821 67.1769C16.6528 67.1802 14.9079 65.3547 14.8829 63.1179L14.7647 28.404C14.7612 26.1672 15.1885 24.3168 19.9203 24.3095L66.4635 24.13C68.5928 24.1267 70.3378 25.9522 70.3628 28.189L70.481 62.9029C70.506 65.1397 68.7667 66.9921 66.6159 66.9954Z" fill="#086981"/>
<path d="M70.6126 50.5354L59.5575 50.5525C58.2455 50.5546 57.1684 49.4808 57.1664 48.1688L57.1586 43.1144C57.1566 41.8025 58.2303 40.7254 59.5423 40.7234L70.5974 40.7063C71.9094 40.7042 72.9865 41.778 72.9885 43.09L72.9963 48.1444C72.9984 49.4564 71.9246 50.5334 70.6126 50.5354Z" fill="#29CFD4"/>
<path d="M61.0793 47.2379C61.9702 47.2365 62.6913 46.5132 62.6899 45.6223C62.6885 44.7314 61.9652 44.0103 61.0743 44.0117C60.1834 44.013 59.4623 44.7364 59.4637 45.6273C59.4651 46.5182 60.1884 47.2393 61.0793 47.2379Z" fill="white"/>
<path d="M36.3307 24.1549L19.9418 24.2878C15.21 24.2951 14.7827 26.1455 14.7862 28.3823L14.9044 63.0962C14.9078 65.333 16.6528 67.18 18.8036 67.1552L44.2905 67.0082C44.2905 67.0082 48.6733 63.8828 48.6645 58.1831C48.6557 52.4835 40.7827 51.8505 40.1063 45.6141C39.4299 39.3778 52.3501 35.3789 52.3327 24.1301L36.3307 24.1549Z" fill="#29CFD4"/>
<path d="M42.934 9.78729C44.245 9.78729 45.3077 8.72458 45.3077 7.41366C45.3077 6.10275 44.245 5.04004 42.934 5.04004C41.6231 5.04004 40.5604 6.10275 40.5604 7.41366C40.5604 8.72458 41.6231 9.78729 42.934 9.78729Z" fill="#872166"/>
<path d="M6.07474 12.372C3.99895 13.3951 3.15722 16.3578 4.34784 19.0902C5.53845 21.8226 7.94899 23.2377 10.6562 23.1624C11.4753 23.1396 12.7343 22.6344 13.1644 22.479C14.3937 21.1397 13.5058 18.5966 12.4461 16.1646C11.3003 13.5352 11.0758 11.037 8.40184 11.3063C7.50103 11.5333 6.6391 12.0938 6.07474 12.372Z" fill="#872166"/>
<path d="M8.10756 11.3594C5.41106 12.3338 4.3169 15.6299 5.66368 18.7214C7.01047 21.813 10.2882 23.5293 12.9847 22.555C15.6812 21.5806 16.7754 18.2845 15.4286 15.1929C14.0818 12.1013 10.8041 10.385 8.10756 11.3594Z" fill="#AB5991"/>
<path d="M9.17596 20.486L8.85178 19.621C9.11083 19.4016 9.29622 19.1374 9.40795 18.8285C9.52413 18.5112 9.51809 18.1814 9.38985 17.8392C9.37322 17.7949 9.35438 17.7547 9.33332 17.7187C9.31669 17.6744 9.29666 17.631 9.27323 17.5888L8.25143 17.8977L7.94506 17.0803L8.62207 16.8227L8.68338 16.8041C8.5882 16.6918 8.49983 16.5774 8.41827 16.461C8.34352 16.3425 8.2824 16.2199 8.2349 16.0932C8.12328 15.7953 8.07684 15.5095 8.09559 15.2358C8.11433 14.962 8.1882 14.7139 8.31718 14.4915C8.45061 14.2607 8.63353 14.0607 8.86595 13.8917C9.096 13.7163 9.3711 13.5802 9.69126 13.4834C10.0727 13.368 10.4281 13.3346 10.7572 13.3832C11.0932 13.4298 11.4233 13.5416 11.7475 13.7187L11.2151 14.7263C11.0494 14.6283 10.89 14.5671 10.7368 14.5429C10.5812 14.5123 10.4217 14.5218 10.2582 14.5712C9.98576 14.6536 9.79509 14.7924 9.68622 14.9876C9.58417 15.1807 9.59014 15.4293 9.70414 15.7335C9.74689 15.8476 9.79985 15.9585 9.86304 16.0664C9.92622 16.1743 9.99622 16.2801 10.073 16.3839L11.5853 15.9266L11.9095 16.7915L10.5913 17.1901C10.6148 17.2324 10.6348 17.2758 10.6514 17.3201C10.6725 17.3561 10.6925 17.3994 10.7115 17.4501C10.797 17.6782 10.8332 17.886 10.82 18.0734C10.8136 18.2588 10.7608 18.4617 10.6614 18.6822L10.6756 18.7203L13.3221 17.92L13.7638 19.0986L9.17596 20.486Z" fill="white"/>
<path d="M22.6568 19.7883C24.9899 21.0509 25.9755 24.6293 24.6888 27.8998C23.4021 31.1704 20.7331 32.8372 17.7099 32.7059C16.7952 32.6662 15.3819 32.0393 14.8993 31.8458C13.5063 30.2154 14.4581 27.1681 15.6033 24.2571C16.8415 21.1097 17.0533 18.1065 20.0425 18.4708C21.0516 18.7575 22.0225 19.4451 22.6568 19.7883Z" fill="#7D2163"/>
<path d="M20.3718 18.5397C23.397 19.7529 24.6695 23.7362 23.214 27.4366C21.7586 31.1371 18.1264 33.1534 15.1012 31.9402C12.076 30.727 10.8035 26.7437 12.2589 23.0433C13.7143 19.3428 17.3466 17.3265 20.3718 18.5397Z" fill="#993D7D"/>
<path d="M16.2731 28.8476C15.5945 28.5079 15.1089 28.0072 14.8163 27.3453C14.5344 26.6798 14.5123 25.9002 14.7499 25.0065L14.0786 24.6705L14.4516 23.9214L15.0579 24.1706C15.0759 24.1163 15.0957 24.0675 15.1173 24.0241C15.139 23.9806 15.1624 23.9336 15.1876 23.8829C15.2128 23.8323 15.2363 23.7852 15.2579 23.7418C15.2831 23.6911 15.3101 23.6459 15.339 23.6061L14.7543 23.3134L15.1219 22.5752L15.8202 22.8569C16.1087 22.495 16.417 22.2017 16.7452 21.9772C17.077 21.7455 17.4197 21.5825 17.7732 21.4882C18.134 21.3976 18.4966 21.3756 18.8611 21.4224C19.2291 21.462 19.5936 21.5721 19.9545 21.7528C20.2794 21.9154 20.561 22.1467 20.7993 22.4469C21.0376 22.747 21.2038 23.0924 21.2978 23.483L19.9829 23.8963C19.9142 23.6901 19.8257 23.5056 19.7174 23.3429C19.6162 23.1838 19.4718 23.0573 19.2842 22.9633C18.9738 22.8079 18.658 22.7901 18.337 22.9096C18.0231 23.0328 17.7202 23.279 17.4282 23.6482L19.7453 24.8081L19.3453 25.6114L16.9307 24.4028L16.8172 24.6308C16.7883 24.6887 16.7613 24.743 16.7361 24.7936C16.7108 24.8443 16.6892 24.8968 16.6712 24.951L18.6419 25.9375L18.2365 26.7517L16.3741 25.8195C16.2769 26.2681 16.2772 26.648 16.3748 26.9591C16.4796 27.2737 16.6836 27.5069 16.9868 27.6587C17.1961 27.7635 17.4018 27.8032 17.6039 27.7777C17.8131 27.7559 18.0368 27.687 18.2749 27.5711L18.7411 28.8352C18.319 29.0308 17.8988 29.1324 17.4802 29.1399C17.0653 29.1401 16.6629 29.0427 16.2731 28.8476Z" fill="white"/>
<path d="M6.19729 30.0156C3.00223 31.69 1.67189 36.4699 3.45919 40.8521C5.24649 45.2343 8.92126 47.48 13.071 47.3229C14.3266 47.2754 16.2629 46.4455 16.9241 46.1897C18.8262 44.0177 17.5002 39.9362 15.9094 36.0358C14.1894 31.8186 13.8796 27.8006 9.77805 28.2695C8.39448 28.6468 7.06595 29.5604 6.19729 30.0156Z" fill="#70215E"/>
<path d="M9.32425 28.3586C5.18024 29.9615 3.46098 35.2825 5.48416 40.2434C7.50734 45.2043 12.5068 47.9265 16.6508 46.3236C20.7948 44.7207 22.5141 39.3997 20.4909 34.4388C18.4677 29.4779 13.4682 26.7557 9.32425 28.3586Z" fill="#872166"/>
<path d="M14.3046 35.8997C13.8269 35.8001 13.339 35.7591 12.8535 35.7108C12.572 35.6831 12.2963 35.6358 12.0349 35.5354C11.5198 35.3368 11.4421 34.8003 11.869 34.4586C11.99 34.3619 12.1294 34.3024 12.2741 34.2526C12.8326 34.0636 13.4021 34.0101 13.9873 34.0995C14.2788 34.1445 14.3518 34.0837 14.3608 33.8064C14.3698 33.5134 14.3622 33.2207 14.364 32.9275C14.3648 32.7307 14.2589 32.6311 14.0558 32.6058C13.6844 32.561 13.3163 32.5577 12.9447 32.6045C12.4605 32.6675 12.4599 32.6655 12.322 32.2241C12.1286 31.6019 12.1286 31.6019 11.4703 31.7877C11.3751 31.8147 11.2792 31.8395 11.1845 31.8685C10.8795 31.9635 10.8433 32.0296 10.9249 32.326C10.961 32.4588 11.0057 32.5891 11.0446 32.7233C11.1623 33.1145 11.1582 33.109 10.8058 33.3559C9.95394 33.9539 9.55425 34.7369 9.79437 35.7414C10.0063 36.6309 10.6681 37.0852 11.5558 37.3014C12.1027 37.4351 12.6661 37.4458 13.2235 37.5141C13.4409 37.5398 13.6533 37.5803 13.8527 37.6625C14.4412 37.9007 14.5445 38.5439 14.0534 38.9373C13.7909 39.1476 13.4821 39.2684 13.1431 39.3216C12.6202 39.4045 12.0988 39.4154 11.5753 39.3198C11.2686 39.2634 11.2013 39.3204 11.1943 39.6195C11.1889 39.8779 11.1929 40.1359 11.1968 40.3939C11.2021 40.7409 11.2601 40.8072 11.6288 40.8662C12.0983 40.9391 12.5676 40.9116 13.0366 40.8529C13.4038 40.8073 13.4191 40.8186 13.5294 41.1627C13.5796 41.3183 13.6282 41.4766 13.6783 41.6323C13.741 41.829 13.876 41.916 14.0916 41.8596C14.3354 41.7952 14.5801 41.7261 14.8208 41.6514C15.0187 41.5911 15.0889 41.4596 15.0302 41.2684C14.9646 41.0546 14.9092 40.8357 14.8349 40.6243C14.7572 40.4095 14.8227 40.2704 15.0259 40.1504C15.4944 39.8752 15.848 39.4939 16.0628 39.0132C16.6615 37.6826 15.8283 36.2179 14.3046 35.8997Z" fill="white"/>
</svg>
